<svg width="20" height="20" viewBox="0 0 20 20" fill="none" xmlns="http://www.w3.org/2000/svg">
<path d="M1.16174 4.10816L12.3475 15.2939L2.64149 15.2732C2.08681 15.2729 1.55498 15.4929 1.16301 15.8848C0.771031 16.2768 0.551013 16.8086 0.551357 17.3633C0.5517 17.918 0.772377 18.4501 1.16484 18.8426C1.5573 19.235 2.0894 19.4557 2.64408 19.4561L17.3725 19.4652C17.6466 19.4594 17.9169 19.3995 18.1677 19.2889C18.6735 19.078 19.0754 18.676 19.2864 18.1703C19.3969 17.9194 19.4568 17.6492 19.4626 17.375L19.4535 2.64666C19.4544 2.3717 19.4009 2.09919 19.2961 1.84488C19.1912 1.59056 19.0371 1.35946 18.8425 1.1649C18.648 0.970352 18.4169 0.816196 18.1625 0.711334C17.9082 0.606471 17.6357 0.552978 17.3608 0.553935C17.0858 0.552637 16.8134 0.605794 16.5592 0.710342C16.305 0.814889 16.0741 0.968757 15.8798 1.16307C15.6854 1.35738 15.5316 1.58829 15.427 1.84248C15.3225 2.09667 15.2693 2.3691 15.2706 2.64407L15.2914 12.3501L4.10559 1.16431C3.71472 0.773448 3.18479 0.553671 2.63237 0.553329C2.07995 0.552986 1.55029 0.772107 1.15991 1.16249C0.769531 1.55287 0.55041 2.08252 0.550752 2.63495C0.551095 3.18737 0.770872 3.7173 1.16174 4.10816Z" fill="#EFEFEF"/>
</svg>
