<svg width="28" height="16" viewBox="0 0 28 16" fill="none" xmlns="http://www.w3.org/2000/svg">
<path d="M15.4 13.3333H1.4C1.0287 13.3333 0.672601 13.4738 0.41005 13.7239C0.1475 13.9739 0 14.313 0 14.6667C0 15.0203 0.1475 15.3594 0.41005 15.6095C0.672601 15.8595 1.0287 16 1.4 16H15.4C15.7713 16 16.1274 15.8595 16.3899 15.6095C16.6525 15.3594 16.8 15.0203 16.8 14.6667C16.8 14.313 16.6525 13.9739 16.3899 13.7239C16.1274 13.4738 15.7713 13.3333 15.4 13.3333ZM1.4 2.66667H26.6C26.9713 2.66667 27.3274 2.52619 27.59 2.27614C27.8525 2.02609 28 1.68696 28 1.33333C28 0.979711 27.8525 0.640573 27.59 0.390525C27.3274 0.140476 26.9713 0 26.6 0H1.4C1.0287 0 0.672601 0.140476 0.41005 0.390525C0.1475 0.640573 0 0.979711 0 1.33333C0 1.68696 0.1475 2.02609 0.41005 2.27614C0.672601 2.52619 1.0287 2.66667 1.4 2.66667ZM26.6 6.66667H1.4C1.0287 6.66667 0.672601 6.80714 0.41005 7.05719C0.1475 7.30724 0 7.64638 0 8C0 8.35362 0.1475 8.69276 0.41005 8.94281C0.672601 9.19286 1.0287 9.33333 1.4 9.33333H26.6C26.9713 9.33333 27.3274 9.19286 27.59 8.94281C27.8525 8.69276 28 8.35362 28 8C28 7.64638 27.8525 7.30724 27.59 7.05719C27.3274 6.80714 26.9713 6.66667 26.6 6.66667Z" fill="#EFEFEF"/>
</svg>
